<?xml version="1.0" encoding="UTF-8"?>
<svg width="26px" height="26px" viewBox="0 0 26 26" version="1.1" xmlns="http://www.w3.org/2000/svg" xmlns:xlink="http://www.w3.org/1999/xlink">
    <title>编组 13备份 3</title>
    <defs>
        <linearGradient x1="94.0356623%" y1="73.5630555%" x2="9.32131679%" y2="27.4004662%" id="linearGradient-1">
            <stop stop-color="#4637C2" offset="0%"></stop>
            <stop stop-color="#9F6AFF" offset="49.7907732%"></stop>
            <stop stop-color="#E36AFF" offset="100%"></stop>
        </linearGradient>
        <linearGradient x1="62.7218041%" y1="35.378452%" x2="39.6694215%" y2="19.8996079%" id="linearGradient-2">
            <stop stop-color="#756DFF" offset="0%"></stop>
            <stop stop-color="#9F6AFF" offset="38.5115054%"></stop>
            <stop stop-color="#C36AFF" offset="100%"></stop>
        </linearGradient>
        <linearGradient x1="100%" y1="50%" x2="-14.4994424%" y2="50%" id="linearGradient-3">
            <stop stop-color="#756DFF" offset="0%"></stop>
            <stop stop-color="#D674FF" offset="100%"></stop>
        </linearGradient>
    </defs>
    <g id="子产品-S2" stroke="none" stroke-width="1" fill="none" fill-rule="evenodd">
        <g id="S2多维交叉表icon" transform="translate(-27.000000, -25.000000)">
            <g id="编组-14备份-2" transform="translate(27.000000, 22.000000)">
                <g id="编组-13备份-3" transform="translate(0.000000, 3.000000)">
                    <rect id="矩形备份-28" fill="#D8D8D8" opacity="0" x="0" y="0" width="26" height="26"></rect>
                    <rect id="矩形" stroke="url(#linearGradient-1)" stroke-width="2" x="2" y="5" width="22" height="16" rx="2"></rect>
                    <path d="M8,7 C8.55228475,7 9,7.44771525 9,8 L9,17 C9,17.5522847 8.55228475,18 8,18 C7.44771525,18 7,17.5522847 7,17 L7,12 L5,12 C4.44771525,12 4,11.5522847 4,11 C4,10.4477153 4.44771525,10 5,10 L7,10 L7,8 C7,7.44771525 7.44771525,7 8,7 Z" id="形状结合备份-8" fill="url(#linearGradient-2)"></path>
                    <rect id="矩形备份-59" fill="url(#linearGradient-3)" x="10" y="10" width="11" height="2" rx="1"></rect>
                </g>
            </g>
        </g>
    </g>
</svg>