<?xml
version="1.0" encoding="UTF-8"?>
<svg width="32px" height="32px" viewBox="0 0 32 32" version="1.1" xmlns="http://www.w3.org/2000/svg" xmlns:xlink="http://www.w3.org/1999/xlink">
    <title>x6</title>
    <defs>
        <linearGradient x1="-15.9117387%" y1="-13.0565582%" x2="128.529588%" y2="108.674123%" id="linearGradient-1">
            <stop stop-color="#FFE74C" offset="0%"></stop>
            <stop stop-color="#FF1818" offset="100%"></stop>
        </linearGradient>
        <path d="M8,21 C9.31179956,21 10.4269497,21.8419562 10.8345346,23.0149527 C10.8879864,23.0046948 10.9434449,23 11,23 L18,23 C18.5522847,23 19,23.4477153 19,24 C19,24.5522847 18.5522847,25 18,25 L11,25 C10.9434449,25 10.8879864,24.9953052 10.8339928,24.986284 C10.4269497,26.1580438 9.31179956,27 8,27 C6.34314575,27 5,25.6568542 5,24 C5,22.3431458 6.34314575,21 8,21 Z M24,14 C24.5522847,14 25,14.4477153 25,15 L25.0012009,20.3493289 C25.103832,20.4145873 25.2012775,20.4913294 25.2917124,20.5795553 L26.9728762,22.2196531 C27.6799923,22.9094964 27.6939947,24.0419556 27.0041514,24.7490717 C26.9938556,24.7596252 26.9834298,24.7700511 26.9728762,24.7803469 L25.2917124,26.4204447 C24.596929,27.0982566 23.4883524,27.0982566 22.793569,26.4204447 L21.1124051,24.7803469 C20.4052891,24.0905036 20.3912867,22.9580444 21.08113,22.2509283 L21.1124051,22.2196531 L21.1124051,22.2196531 L22.793569,20.5795553 C22.8588384,20.5158802 22.9277595,20.458187 22.9996463,20.4064754 L23,15 C23,14.4477153 23.4477153,14 24,14 Z M8,5 C9.65685425,5 11,6.34314575 11,8 C11,9.37938889 10.0690465,10.5413419 8.80116786,10.8918309 L8.8,17.2799123 C8.8,17.8321971 8.35228475,18.2799123 7.8,18.2799123 C7.24771525,18.2799123 6.8,17.8321971 6.8,17.2799123 L6.79997859,10.7503644 C5.74044716,10.2874256 5,9.23018314 5,8 C5,6.34314575 6.34314575,5 8,5 Z M25.2112943,5 C26.1991692,5 27,5.80083084 27,6.78870573 L27,9.06473157 C27,10.0526065 26.1991692,10.8534373 25.2112943,10.8534373 L22.7887057,10.8534373 C21.8008308,10.8534373 21,10.0526065 21,9.06473157 L21,8.9 L14.5,8.9 C13.9477153,8.9 13.5,8.45228475 13.5,7.9 C13.5,7.34771525 13.9477153,6.9 14.5,6.9 L21,6.9 L21,6.78870573 C21,5.80083084 21.8008308,5 22.7887057,5 L25.2112943,5 Z M8,6.875 C7.37867966,6.875 6.875,7.37867966 6.875,8 C6.875,8.62132034 7.37867966,9.125 8,9.125 C8.62132034,9.125 9.125,8.62132034 9.125,8 C9.125,7.37867966 8.62132034,6.875 8,6.875 Z" id="path-2"></path>
        <filter x="-82.2%" y="-65.9%" width="264.4%" height="268.2%" filterUnits="objectBoundingBox" id="filter-3">
            <feOffset dx="0" dy="4" in="SourceAlpha" result="shadowOffsetOuter1"></feOffset>
            <feGaussianBlur stdDeviation="5.5" in="shadowOffsetOuter1" result="shadowBlurOuter1"></feGaussianBlur>
            <feColorMatrix values="0 0 0 0 0.942708333   0 0 0 0 0.0509256502   0 0 0 0 0.0509256502  0 0 0 0.2 0" type="matrix" in="shadowBlurOuter1"></feColorMatrix>
        </filter>
    </defs>
    <g id="x6" stroke="none" stroke-width="1" fill="none" fill-rule="evenodd">
        <g id="形状结合">
            <use fill="black" fill-opacity="1" filter="url(#filter-3)" xlink:href="#path-2"></use>
            <use fill="url(#linearGradient-1)" fill-rule="evenodd" xlink:href="#path-2"></use>
        </g>
    </g>
</svg>
